PathFileType	4	(X/Y/Z)	\\147.46.242.158\로컬 디스크 (e)\MOCAP Data\Iguana Capture\iguana\Project 2\Capture day 6 after broken\Session 2\Take08 good walk.trc
DataRate	CameraRate	NumFrames	NumMarkers	Units	OrigDataRate	OrigDataStartFrame	OrigNumFrames
120.0	120.0	8	23	mm	120.0	133	9299
Frame#	Time	ana:head1			ana:head2			ana:bone1			ana:bone2			ana:bone3			ana:tail1			ana:tail2			ana:tail3			ana:tail4			ana:Rforefoot1			ana:Rforefoot2			ana:Rforefoot3			ana:Lforefoot1			ana:Lforefoot2			ana:Lforefoot3			ana:RhindLeg1			ana:RhindLeg2			ana:RhindLeg3			ana:RhindLeg4			ana:LhindLeg1			ana:LhindLeg2			ana:LhindLeg3			ana:LhindLeg4			
		X1	Y1	Z1	X2	Y2	Z2	X3	Y3	Z3	X4	Y4	Z4	X5	Y5	Z5	X6	Y6	Z6	X7	Y7	Z7	X8	Y8	Z8	X9	Y9	Z9	X10	Y10	Z10	X11	Y11	Z11	X12	Y12	Z12	X13	Y13	Z13	X14	Y14	Z14	X15	Y15	Z15	X16	Y16	Z16	X17	Y17	Z17	X18	Y18	Z18	X19	Y19	Z19	X20	Y20	Z20	X21	Y21	Z21	X22	Y22	Z22	X23	Y23	Z23	

8765	73.033	182.82867	129.36241	45.77354	174.30495	136.09999	47.24706	157.71120	150.13026	41.77242	140.17755	171.19022	41.53344	110.82848	193.25281	35.08304	83.56142	210.32567	25.51444	63.62866	235.72385	13.93202	48.51842	277.48370	7.06387	39.75370	310.35196	6.54241	146.62256	146.10744	25.26108	133.55077	154.08566	19.98595	132.27356	164.52705	5.80407	171.82571	153.98442	25.48111	182.64384	159.59969	16.63493	185.73528	150.84274	3.92017	106.87125	183.66924	27.43134	108.15801	167.65668	23.66606	100.26679	170.71417	5.49812	106.99090	160.57468	3.59839	114.50664	203.66766	29.08330	114.60529	220.50717	24.37460	102.57886	238.09996	16.82456	109.67280	243.17447	8.57383	
8766	73.042	183.78790	128.66350	45.52362	174.96169	135.48271	47.12489	158.59573	149.46320	41.62896	141.17168	170.43388	41.61765	111.88149	192.59520	35.27037	84.19021	209.85394	25.69289	64.27316	235.09247	14.12766	48.84348	276.61819	6.90653	39.91962	309.36908	6.57492	147.30316	145.28175	25.15970	133.95323	153.08884	20.04920	131.74736	164.29301	5.68806	172.66353	153.59882	25.33599	183.05945	159.72375	16.47896	185.67543	150.99521	3.67699	107.63832	183.00365	26.98788	108.16929	167.14401	23.47394	100.30795	170.74519	5.48753	106.97844	160.76357	3.34570	115.23637	202.84962	29.18310	115.05787	219.80899	24.56271	103.83982	237.69496	17.74213	109.75264	242.85980	8.69057	
8767	73.050	184.53748	128.00784	45.53099	176.08015	134.75525	46.96195	159.36905	148.63727	41.60192	141.70587	169.60562	41.76376	112.22941	191.81404	35.23097	84.89894	209.28291	25.96120	64.86790	234.48441	14.50482	49.18793	275.92224	7.07521	40.08770	308.31226	6.61978	147.91519	144.19180	25.36683	135.19499	151.95493	20.37824	132.03340	163.90334	5.45289	173.31276	153.08308	25.35354	183.34761	159.70251	16.10697	185.76329	150.83665	3.84977	108.04818	182.24643	27.19349	108.14969	166.45680	23.10777	100.25920	170.69844	5.37115	106.90608	161.04398	3.00093	116.17729	202.18214	29.63763	115.91137	219.12091	24.97255	104.62226	237.09943	18.01942	110.31905	242.57806	9.26196	
8768	73.058	185.64870	127.30746	45.55376	177.00406	134.23724	47.18550	160.32599	148.13121	41.26149	142.23581	168.57173	41.52509	113.08243	190.82396	35.32098	85.68757	208.73668	26.28965	65.45396	233.87311	14.74521	49.47394	275.08170	7.06949	40.30148	307.63004	6.67692	149.00577	143.21608	25.10213	135.68974	150.89165	20.29097	132.31108	162.84793	5.75823	173.94948	152.66235	25.12709	183.61360	159.71693	16.13712	185.69345	150.83971	3.80547	108.71796	181.69907	27.69241	108.09469	165.94249	22.95567	99.97860	170.41316	5.65923	106.93617	160.55336	3.62672	116.57043	201.33069	29.38454	116.56427	217.97151	25.00594	105.53018	236.51474	19.03720	110.81581	242.42310	10.17059	
8769	73.067	186.53554	126.86681	45.43197	177.88852	133.35161	47.13746	160.81577	147.07813	41.16969	142.92873	167.83035	41.48877	114.11662	190.23706	35.44918	86.42352	208.25089	26.38093	66.14468	233.20451	15.08199	49.85749	274.42691	7.13514	40.60330	306.99310	6.59061	149.58015	142.17972	25.60947	136.56731	149.77806	20.86126	133.02228	161.85335	6.34610	174.59782	152.31970	24.95939	184.10417	159.93463	16.21010	185.68968	150.91887	3.75330	108.86449	181.21468	27.30209	108.14326	165.57489	22.29702	100.08270	170.59343	5.46030	106.81155	160.36922	3.81727	117.44880	200.52484	29.57097	117.84142	217.41179	25.62873	106.70118	235.65063	19.25170	111.20178	242.02496	10.58022	
8770	73.075	187.65921	126.26725	45.37239	178.66898	133.05511	46.84722	161.92435	146.53233	41.30333	143.51532	166.81630	41.45974	114.50176	189.31790	35.28899	87.24487	207.72060	26.57716	66.68034	232.63333	15.21920	50.12759	273.57977	7.28152	40.97403	306.26215	6.62098	150.91743	141.15981	25.59872	137.33994	148.24481	21.45574	132.58409	160.76891	6.75328	175.24312	151.91020	24.84525	184.25256	159.99565	16.26105	185.69806	150.89842	3.65057	109.56332	180.36261	27.53874	108.04267	164.93962	22.32990	99.98389	170.56407	5.47900	106.82339	160.36145	3.78496	118.08492	199.44334	29.67585	118.46987	216.26971	25.55397	107.81969	235.36401	19.76773	112.26595	241.48193	10.98652	
8771	73.083	188.75023	125.76846	45.56970	179.84044	132.44518	46.75681	162.74046	145.80870	41.30095	144.20258	165.89430	41.48965	115.08981	188.43869	35.39478	88.08080	207.13451	26.73826	67.39325	231.98683	15.21291	50.36551	272.66055	7.05775	40.94789	304.93143	6.45058	151.31407	140.09637	25.78049	137.99931	146.96039	22.47169	133.09444	159.15717	7.88933	175.82864	151.51860	24.58715	184.28224	159.90186	16.04091	185.72319	150.92111	3.69549	109.83470	179.71033	27.66063	107.90002	164.34087	22.24594	99.95581	170.56013	5.45751	106.77580	160.35477	3.80102	118.82746	198.74451	29.84299	119.86667	215.45853	26.13097	109.12822	234.48393	20.23253	112.93695	241.04105	11.20929	
8772	73.092	189.18497	124.96756	45.28501	180.38800	131.87482	46.64521	163.34200	145.28656	41.44559	144.52286	164.94347	41.36772	115.73940	187.47623	35.37130	88.82317	206.48952	26.77682	67.95612	231.16515	15.56509	51.00081	271.87125	7.19341	41.45150	304.21924	6.59541	153.27159	138.76343	26.03285	138.94698	145.22960	23.46033	133.61734	157.15225	8.47984	176.41888	151.15494	24.57087	184.43619	159.96823	15.90913	185.58626	150.92659	3.57049	109.99330	178.92398	27.68037	107.81286	163.76175	22.06686	100.04470	170.51259	5.33085	106.81340	160.33266	3.76660	119.66820	197.71918	29.85871	120.87825	214.69756	26.35199	110.34063	233.85701	20.78436	113.52674	240.52776	11.44054	
